<?xml version="1.0" encoding="utf-8"?>
<svg width="108" height="108" version="1.1" id="Layer_1" xmlns="http://www.w3.org/2000/svg" xmlns:xlink="http://www.w3.org/1999/xlink" x="0px" y="0px"
	 viewBox="0 0 108 108" style="enable-background:new 0 0 108 108;" xml:space="preserve">
<path id="Shape" class="st0" fill="#028BBB" d="M0,12v84c0,6.6,5.3,12,12,12h84c6.6,0,12-5.4,12-12V12c0-6.6-5.4-12-12-12H12C5.3,0,0,5.4,0,12z
	 M72,36c0,10-8,18-18,18s-18-8-18-18s8-18,18-18S72,26,72,36z M18,84c0-12,24-18.6,36-18.6S90,72,90,84v6H18V84z"/>
</svg>
